<?xml version="1.0" encoding="UTF-8"?>
<svg width="313px" height="83px" viewBox="0 0 313 83" version="1.1" xmlns="http://www.w3.org/2000/svg" xmlns:xlink="http://www.w3.org/1999/xlink">
    <!-- Generator: Sketch 52.3 (67297) - http://www.bohemiancoding.com/sketch -->
    <title>logo/logoPrimary</title>
    <desc>Created with Sketch.</desc>
    <g id="Symbols" stroke="none" stroke-width="1" fill="none" fill-rule="evenodd">
        <g id="logo/logoPrimary/Red" fill="#CCCDCE">
            <g id="logo/logoPrimary">
                <path d="M21.5562,51.0049 C21.5562,54.9939 17.9232,57.7339 13.1602,57.7339 C9.7062,57.7339 7.0272,56.0069 7.0272,52.9709 L7.0272,52.8509 C7.0272,49.5749 9.7652,47.6099 14.4102,47.6099 C17.2682,47.6099 19.7102,48.1469 21.5562,48.8609 L21.5562,51.0049 Z M14.5892,30.4629 C10.4802,30.4629 7.4432,31.1769 4.4662,32.3089 C3.3942,32.7249 2.5012,33.8559 2.5012,35.1649 C2.5012,36.8339 3.8712,38.1439 5.5382,38.1439 C5.8952,38.1439 6.2522,38.0839 6.6702,37.9649 C8.6352,37.1909 10.8972,36.7139 13.6372,36.7139 C18.6982,36.7139 21.4362,39.0969 21.4362,43.5629 L21.4362,44.3359 C18.9942,43.5629 16.4942,43.0259 12.9812,43.0259 C5.2992,43.0259 0.0002,46.3599 0.0002,53.1489 L0.0002,53.2689 C0.0002,59.5779 5.2402,62.9739 11.1362,62.9739 C15.9582,62.9739 19.2332,60.9479 21.3772,58.3899 L21.3772,59.5779 C21.3772,61.1879 22.8062,62.6149 24.8902,62.6149 C26.8552,62.6149 28.4032,61.1279 28.4032,59.1619 L28.4032,43.6809 C28.4032,39.5709 27.3322,36.2369 25.0092,33.9759 C22.8062,31.7129 19.2922,30.4629 14.5892,30.4629 Z" id="Fill-1"></path>
                <path d="M39.5444,18.5527 C37.5194,18.5527 35.9714,20.1587 35.9714,22.1237 L35.9714,59.0427 C35.9714,61.0687 37.5794,62.6157 39.5444,62.6157 C41.5684,62.6157 43.1764,61.0687 43.1764,59.0427 L43.1764,22.1237 C43.1764,20.1587 41.5684,18.5527 39.5444,18.5527" id="Fill-3"></path>
                <path d="M55.0889,18.9101 C52.7659,18.9101 50.9799,20.2791 50.9799,22.4231 L50.9799,22.7801 C50.9799,24.9241 52.7659,26.3521 55.0889,26.3521 C57.4109,26.3521 59.1969,24.9241 59.1969,22.7801 L59.1969,22.4231 C59.1969,20.2791 57.4109,18.9101 55.0889,18.9101" id="Fill-5"></path>
                <path d="M55.0889,30.5215 C53.0639,30.5215 51.5159,32.1285 51.5159,34.1535 L51.5159,59.0425 C51.5159,61.0685 53.1239,62.6165 55.0889,62.6165 C57.1129,62.6165 58.7209,61.0685 58.7209,59.0425 L58.7209,34.1535 C58.7209,32.1285 57.1129,30.5215 55.0889,30.5215" id="Fill-7"></path>
                <path d="M130.3047,63.0332 C135.5447,63.0332 138.9387,61.2472 141.7377,58.5662 C142.3917,58.0312 142.7497,57.2582 142.7497,56.3042 C142.7497,54.5782 141.3807,53.1472 139.6527,53.1472 C138.8197,53.1472 138.1057,53.5642 137.6877,53.9242 C135.7227,55.5912 133.5197,56.7212 130.6617,56.7212 C125.1247,56.7212 121.2537,52.2562 121.2537,46.6592 L121.2537,46.5392 C121.2537,41.0602 125.1247,36.5362 130.3637,36.5362 C133.2217,36.5362 135.2467,37.6672 137.0927,39.2152 C137.5697,39.5722 138.3427,39.9292 139.2367,39.9292 C141.0827,39.9292 142.5717,38.5012 142.5717,36.6532 C142.5717,35.4642 141.9167,34.5702 141.4397,34.1522 C138.7607,31.8322 135.3667,30.2222 130.4237,30.2222 C120.9567,30.2222 114.0487,37.7262 114.0487,46.6592 L114.0487,46.7762 C114.0487,55.7092 120.9567,63.0332 130.3047,63.0332" id="Fill-9"></path>
                <path d="M166.9902,34.0351 C166.9902,31.9491 165.6792,30.4631 163.4182,30.4631 C160.2612,30.4631 157.1652,33.4381 155.4982,37.3691 L155.4982,34.1521 C155.4982,32.1301 153.8902,30.5201 151.8652,30.5201 C149.8412,30.5201 148.2922,32.1301 148.2922,34.1521 L148.2922,59.0441 C148.2922,61.0671 149.9002,62.6151 151.8652,62.6151 C153.8902,62.6151 155.4982,61.0091 155.4982,59.0441 L155.4982,49.7541 C155.4982,42.3101 159.0112,38.3821 164.1322,37.4871 C165.7392,37.1891 166.9902,35.9391 166.9902,34.0351" id="Fill-11"></path>
                <path d="M183.667,27.1855 C185.334,27.1855 186.466,26.8875 187.896,25.5795 L191.885,21.7675 C192.48,21.2335 192.896,20.6365 192.896,19.9825 C192.896,18.8495 190.516,17.6595 188.61,17.6595 C187.359,17.6595 186.406,18.3145 185.752,19.3855 L182.357,24.6245 C182.119,24.9835 181.882,25.5195 181.882,25.9355 C181.882,26.7095 182.655,27.1855 183.667,27.1855" id="Fill-13"></path>
                <path d="M175.748,44.3965 C176.402,39.5115 179.499,36.1195 183.905,36.1195 C188.669,36.1195 191.409,39.7505 191.885,44.3965 L175.748,44.3965 Z M183.965,30.2225 C174.974,30.2225 168.602,37.6075 168.602,46.5975 L168.602,46.7165 C168.602,56.4225 175.629,63.0335 184.739,63.0335 C189.622,63.0335 193.194,61.4245 196.053,58.8655 C196.589,58.3295 197.006,57.5545 197.006,56.6625 C197.006,54.9955 195.755,53.7445 194.147,53.7445 C193.314,53.7445 192.837,53.9825 192.301,54.3995 C190.277,56.0665 187.894,57.1375 184.858,57.1375 C180.214,57.1375 176.582,54.2805 175.807,49.1605 L195.518,49.1605 C197.362,49.1605 198.911,47.7305 198.911,45.7065 C198.911,38.4415 193.969,30.2225 183.965,30.2225 Z" id="Fill-15"></path>
                <path d="M228.6299,46.6582 C228.6299,52.6732 224.3429,56.7212 219.5199,56.7212 C214.6369,56.7212 210.4689,52.7312 210.4689,46.6582 L210.4689,46.5392 C210.4689,40.2872 214.5769,36.4752 219.5199,36.4752 C224.3429,36.4752 228.6299,40.4662 228.6299,46.5392 L228.6299,46.6582 Z M232.0829,18.5532 C230.1179,18.5532 228.5109,20.1002 228.5109,22.1252 L228.5109,35.7622 C226.2479,32.7832 222.9729,30.2222 217.7919,30.2222 C210.2899,30.2222 203.2039,36.1192 203.2039,46.5392 L203.2039,46.6582 C203.2039,57.0792 210.4089,62.9722 217.7919,62.9722 C222.9129,62.9722 226.1889,60.3532 228.5109,57.0792 L228.5109,59.0442 C228.5109,61.0672 230.1179,62.6152 232.1429,62.6152 C234.1079,62.6152 235.7159,61.0672 235.7159,59.0442 L235.7159,22.1252 C235.7159,20.1002 234.1079,18.5532 232.0829,18.5532 Z" id="Fill-17"></path>
                <path d="M250.9062,34.1523 C250.9062,32.1303 249.2992,30.5203 247.2742,30.5203 C245.2492,30.5203 243.7022,32.1303 243.7022,34.1523 L243.7022,59.0443 C243.7022,61.0673 245.3092,62.6163 247.2742,62.6163 C249.2992,62.6163 250.9062,61.0673 250.9062,59.0443 L250.9062,34.1523 Z" id="Fill-19"></path>
                <path d="M247.2744,26.3535 C249.5964,26.3535 251.3824,24.9225 251.3824,22.7815 L251.3824,22.4215 C251.3824,20.2805 249.5964,18.9105 247.2744,18.9105 C244.9524,18.9105 243.1664,20.2805 243.1664,22.4215 L243.1664,22.7815 C243.1664,24.9225 244.9524,26.3535 247.2744,26.3535" id="Fill-21"></path>
                <path d="M276.2168,59.2217 C276.2168,57.5547 274.7878,56.2437 273.1788,56.2437 C272.9418,56.2437 272.2268,56.4227 271.3938,56.4227 C268.9518,56.4227 267.5238,55.2917 267.5238,52.4927 L267.5238,37.0717 L273.1788,37.0717 C274.9058,37.0717 276.3348,35.7007 276.3348,33.9757 C276.3348,32.2467 274.9058,30.8777 273.1788,30.8777 L267.5238,30.8777 L267.5238,25.5197 C267.5238,23.5537 265.9148,21.9477 263.9488,21.9477 C261.9258,21.9477 260.3178,23.5537 260.3178,25.5197 L260.3178,30.8777 L259.1268,30.8777 C257.4008,30.8777 256.0298,32.2467 256.0298,33.9757 C256.0298,35.7007 257.4008,37.0717 259.1268,37.0717 L260.3178,37.0717 L260.3178,53.6247 C260.3178,60.5327 264.0698,62.8557 269.3678,62.8557 C271.2738,62.8557 272.7628,62.5577 274.3108,62.0217 C275.3228,61.6047 276.2168,60.5327 276.2168,59.2217" id="Fill-23"></path>
                <path d="M305.5166,46.7773 C305.5166,52.1963 301.8246,56.7203 295.9896,56.7203 C290.3916,56.7203 286.4016,52.1353 286.4016,46.6593 L286.4016,46.5393 C286.4016,41.0603 290.0936,36.5363 295.8696,36.5363 C301.5266,36.5363 305.5166,41.1203 305.5166,46.6593 L305.5166,46.7773 Z M295.9896,30.2223 C286.3416,30.2223 279.1976,37.6673 279.1976,46.6593 L279.1976,46.7773 C279.1976,55.7093 286.2836,63.0333 295.8696,63.0333 C305.5766,63.0333 312.7206,55.5903 312.7206,46.6593 L312.7206,46.5393 C312.7206,37.5483 305.6346,30.2223 295.9896,30.2223 Z" id="Fill-25"></path>
                <path d="M95.3062,22.6738 C94.9212,22.3398 94.5352,22.0058 94.1472,21.6758 C88.6142,16.9558 82.7482,12.6458 76.7762,8.5018 C73.8442,6.4688 70.8602,4.5108 67.9212,2.4858 C65.9162,1.1048 62.5282,-1.0662 60.1792,0.6078 C60.0192,0.7208 59.8652,0.8518 59.7162,1.0008 C58.1092,2.6218 58.1992,5.6768 59.5012,7.4088 C60.2392,8.3918 61.1052,9.2838 61.9722,10.1588 C67.1722,15.4038 72.4552,20.5698 77.5852,25.8838 C82.9282,31.4168 86.8782,37.8808 89.7562,45.0088 C91.6882,49.7908 92.8172,54.7638 93.2232,60.2468 C97.3162,54.7758 101.5062,49.7538 103.6062,43.4528 C105.0682,39.0688 104.6592,34.8528 102.3272,30.7688 C100.5092,27.5808 98.0062,25.0268 95.3062,22.6738" id="Fill-45"></path>
                <path d="M85.2837,44.4219 C84.2927,46.7429 75.3367,63.4649 71.7247,69.8789 C70.4457,72.1519 69.1107,74.4129 68.0787,76.7999 C67.2277,78.7699 68.1257,81.1169 70.0507,82.0509 C71.6327,82.8179 73.3217,82.3299 74.7757,81.4479 C75.4357,81.0489 76.0467,80.5679 76.5787,80.0849 C79.7877,77.1769 82.2997,73.6229 85.0407,70.2939 C87.4867,67.3239 89.9997,64.5399 89.2367,60.3659 C88.2447,54.9409 87.2567,49.5959 85.2837,44.4219" id="Fill-47"></path>
            </g>
        </g>
    </g>
</svg>
